<svg width="452" height="452" viewBox="0 0 452 452" fill="none" xmlns="http://www.w3.org/2000/svg">
<path d="M278.394 59.3816C274.044 59.7583 269.505 60.1349 265.155 60.6999C246.592 62.7664 228.538 68.0831 211.819 76.4069C194.583 84.8442 178.914 96.1625 165.488 109.874C164.923 110.627 163.794 111.004 162.833 110.815C153.51 109.429 144.07 108.988 134.658 109.497C115.46 110.44 96.662 115.332 79.439 123.867C46.1417 140.516 22.6942 166.43 9.07767 201.234C4.10973 214.131 1.17443 227.721 0.376667 241.519C0.376667 242.46 0.188333 243.214 0 243.967V258.525C0.376667 262.311 0.941667 265.908 1.31833 269.693C3.20167 285.005 7.571 299.751 14.5582 313.575C30.0768 344.575 53.901 367.269 85.8612 381.262C100.456 387.697 116.081 391.479 132.003 392.43C132.606 392.43 133.133 392.506 133.623 392.619H295.137C298.584 392.298 301.955 391.959 305.439 391.489C323.875 389.419 341.798 384.101 358.379 375.782C386.698 361.96 410.51 340.381 427.046 313.556C438.37 295.861 445.958 276.038 449.345 255.305C450.286 248.901 450.851 242.272 451.623 235.831C451.623 234.889 451.812 234.136 452 233.383V218.429C451.623 214.097 451.058 209.916 451.058 205.961C448.99 187.519 443.673 169.589 435.351 153.002C421.325 124.708 399.634 100.922 372.749 84.3546C355.146 73.1674 335.469 65.6413 314.893 62.2254C308.076 61.0954 301.465 60.5304 294.648 59.7771C293.706 59.7771 292.953 59.5888 292.011 59.4004L278.394 59.3816ZM285.344 91.2664C325.384 91.3606 359.359 106.823 386.95 137.502C402.572 155.224 413.091 176.854 417.384 200.085C420.209 214.474 420.793 229.221 418.703 243.779C415.124 269.128 405.482 291.804 389.021 311.673C369.895 335.154 343.348 351.426 313.745 357.815C297.91 361.281 281.588 361.918 265.531 359.698C244.909 357.061 226 350.262 208.975 337.964C204.458 334.732 200.224 331.122 196.319 327.173C173.229 304.479 150.365 281.596 127.276 258.902C121.607 253.252 121.23 246.999 123.886 241.312C125.274 238.275 127.607 235.77 130.536 234.168C133.465 232.566 136.833 231.953 140.139 232.422C144.094 232.799 147.145 235.078 149.97 237.922C170.781 258.902 191.403 279.524 212.195 300.524C227.806 316.444 248.329 326.635 270.447 329.452C307.134 334.367 338.341 323.029 363.107 295.589C376.535 280.654 384.671 262.687 388.08 242.649C392.976 212.76 386.008 185.904 367.457 162.268C351.016 141.269 329.452 128.217 303.349 123.49C276.681 118.782 251.538 123.867 228.656 138.444C228.091 138.821 226.772 139.009 226.188 138.632C217.869 132.477 209.006 127.094 199.709 122.549C199.709 122.549 199.52 122.36 199.332 121.984C206.596 115.936 214.526 110.735 222.968 106.484C238.334 98.142 255.278 93.1122 272.707 91.7184C276.905 91.4009 281.115 91.2501 285.325 91.2664H285.344ZM142.116 141.42C169.519 140.968 194.68 151.307 217.111 172.118C233.194 187.222 247.941 202.929 263.441 218.636C267.791 222.968 268.733 228.467 266.661 234.324C264.59 240.182 259.844 243.025 253.798 243.967C251.611 244.265 249.385 244.027 247.312 243.272C245.238 242.517 243.379 241.269 241.895 239.635C227.13 224.87 212.384 210.312 197.825 195.377C185.904 183.079 171.722 176.073 155.074 173.041C118.198 166.43 80.9457 187.806 67.7058 222.78C50.6805 267.226 77.5368 317.53 123.867 328.133C132.945 330.205 142.606 330.205 152.06 330.017C154.697 329.828 156.204 330.77 158.087 332.465C167.184 341.373 176.826 350.262 186.281 359.133C186.846 359.698 187.599 360.263 188.164 360.828C187.034 360.828 186.281 361.016 185.527 361.016H142.211C117.218 361.011 92.975 352.485 73.4822 336.844C53.9894 321.203 40.4124 299.383 34.9923 274.986C22.6942 219.578 54.466 163.398 108.932 146.957C119.676 143.552 130.849 141.687 142.116 141.42Z" fill="#599E4F"/>
</svg>
