<svg width="320" height="465" viewBox="0 0 320 465" fill="none" xmlns="http://www.w3.org/2000/svg">
<path fill-rule="evenodd" clip-rule="evenodd" d="M0 87.7419C0 39.2833 39.2833 0 87.7419 0H232.258C280.717 0 320 39.2833 320 87.7419C320 117.711 304.975 144.172 282.046 160C304.975 175.829 320 202.289 320 232.258C320 280.717 280.717 320 232.258 320C210.606 320 190.786 312.158 175.484 299.158V376.774C175.484 425.233 136.201 464.516 87.7419 464.516C39.2833 464.516 0 425.233 0 376.774C0 346.805 15.0254 320.345 37.954 304.516C15.0254 288.688 0 262.228 0 232.258C0 202.289 15.0254 175.829 37.954 160C15.0254 144.171 0 117.711 0 87.7419ZM87.7419 175.484C56.3863 175.484 30.9677 200.902 30.9677 232.258C30.9677 263.614 56.3863 289.032 87.7419 289.032H144.516V175.484H87.7419ZM144.516 144.516H87.7419C56.3863 144.516 30.9677 119.098 30.9677 87.7419C30.9677 56.3863 56.3863 30.9677 87.7419 30.9677H144.516V144.516ZM232.258 175.484C200.902 175.484 175.484 200.902 175.484 232.258C175.484 263.614 200.902 289.032 232.258 289.032C263.614 289.032 289.032 263.614 289.032 232.258C289.032 200.902 263.614 175.484 232.258 175.484ZM175.484 144.516V30.9677H232.258C263.614 30.9677 289.032 56.3863 289.032 87.7419C289.032 119.098 263.614 144.516 232.258 144.516H175.484ZM144.516 320H87.7419C56.3863 320 30.9677 345.419 30.9677 376.774C30.9677 408.13 56.3863 433.548 87.7419 433.548C119.098 433.548 144.516 408.13 144.516 376.774V320Z" fill="#599E4F"/>
</svg>
