<svg width="351" height="496" viewBox="0 0 351 496" fill="none" xmlns="http://www.w3.org/2000/svg">
<g clip-path="url(#clip0_497_531)">
<path d="M31.9422 455.668L0 97.3875H351L319.023 455.612L175.285 495.461L31.9422 455.668Z" fill="#599E4F"/>
<path d="M175.5 465.001L291.647 432.801L318.974 126.682H175.5V465.001Z" fill="#599E4F"/>
<path d="M175.501 259.563H117.355L113.339 214.566H175.501V170.624H65.3164L66.3682 182.413L77.1682 303.504H175.501V259.563ZM175.501 373.685L175.31 373.736L126.371 360.521L123.242 325.476H79.1316L85.2878 394.471L175.299 419.458L175.501 419.402V373.685Z" fill="#EBEBEB"/>
<path d="M32.6562 0.0219727H54.9868V22.0845H75.414V0.0219727H97.7455V66.8327H75.4149V44.4605H54.9878V66.8327H32.6582V0.0219727H32.6562ZM127.111 22.1774H107.453V0.0219727H169.112V22.1774H149.444V66.8327H127.113L127.111 22.1774ZM178.897 0.0219727H202.18L216.504 23.4973L230.813 0.0219727H254.107V66.8327H231.868V33.7176L216.505 57.4725H216.121L200.746 33.7176V66.8327H178.898V0.0219727H178.897ZM265.22 0.0219727H287.558V44.7489H318.961V66.8327H265.22V0.0219727Z" fill="#599E4F"/>
<path d="M175.348 259.564V303.505H229.456L224.355 360.494L175.348 373.722V419.437L265.429 394.471L266.09 387.047L276.416 271.363L277.488 259.564H265.647H175.348ZM175.348 170.625V214.567H281.487L282.368 204.69L284.37 182.413L285.421 170.625H175.348Z" fill="white"/>
</g>
<defs>
<clipPath id="clip0_497_531">
<rect width="351" height="495.483" fill="white"/>
</clipPath>
</defs>
</svg>
