<?xml version="1.0" encoding="UTF-8"?>
<svg id="Layer_1" xmlns="http://www.w3.org/2000/svg" version="1.1" viewBox="0 0 66 33">
  <!-- Generator: Adobe Illustrator 29.5.0, SVG Export Plug-In . SVG Version: 2.1.0 Build 137)  -->
  <defs>
    <style>
      .st0 {
        fill: #599e4f;
      }
    </style>
  </defs>
  <path class="st0" d="M13.35,15.2l8.63-6.17c1.75-1.25,3.03-2.31,3.84-3.17.81-.89,1.21-1.6,1.21-2.13,0-.78-.93-1.17-2.79-1.17l.42-1.67h11.84l-.42,1.67c-.44,0-.9.1-1.38.29-.47.19-1.13.56-1.96,1.08-.81.53-1.88,1.28-3.21,2.25-1.33.97-3.1,2.22-5.29,3.75l-6.42,4.5,8.17,10.76c1.16,1.45,2.06,2.64,2.67,3.46.96,1.3,1.32,1.83,2.05,2.11,1.28.49,2.68-.21,3.38-.64.41,0,.82-.02,1.23-.03-.85.96-1.69,1.93-2.54,2.89h-13.09l.46-1.67c.97,0,1.72-.07,2.25-.21.56-.17.83-.49.83-.96,0-.39-.19-.93-.58-1.63-.39-.72-.99-1.64-1.79-2.75l-6.59-8.84-1.67,1.17-2.08,7.88c-.33,1.22-.5,2.2-.5,2.92,0,.95.32,1.58.96,1.92.67.33,1.76.5,3.29.5l-.54,1.67H.43l.46-1.67c.78,0,1.43-.06,1.96-.17.53-.14.99-.39,1.38-.75.42-.36.76-.86,1.04-1.5.28-.64.56-1.47.83-2.5L10.98,7.99c.42-1.53.63-2.67.63-3.42,0-.86-.32-1.4-.96-1.63-.61-.25-1.67-.38-3.17-.38l.46-1.67h13.55l-.46,1.67c-.92,0-1.68.1-2.29.29-.61.17-1.14.5-1.58,1-.44.5-.85,1.2-1.21,2.08-.33.89-.68,2.04-1.04,3.46l-1.54,5.79Z"/>
  <path class="st0" d="M64.56,33h-28.93v-.17L57.56,2.65h-22.41V.9h29v.17l-21.72,30.02h12.92c1.42,0,2.58-.1,3.5-.29.92-.22,1.65-.63,2.21-1.21.58-.58,1.03-1.38,1.33-2.38.33-1.03.63-2.36.88-4h1.79l-.5,9.8Z"/>
</svg>