<svg width="800" height="800" viewBox="0 0 800 800" fill="none" xmlns="http://www.w3.org/2000/svg">
<path d="M736.402 613.161C692.907 612.077 659.198 616.429 630.925 628.387C622.77 631.648 609.72 631.652 608.632 641.98C612.984 646.332 613.527 653.399 617.333 659.378C623.862 670.249 635.274 684.932 645.606 692.545C657.022 701.243 668.441 709.941 680.4 717.554C701.605 730.604 725.529 738.213 746.188 751.263C758.153 758.869 770.108 768.662 782.07 776.817C788.053 781.162 791.856 788.233 799.469 790.951V789.321C795.662 784.427 794.574 777.359 790.771 771.922C785.338 766.485 779.898 761.591 774.461 756.154C758.692 734.952 739.121 716.466 717.916 701.243C700.521 689.281 662.459 672.97 655.392 652.853C655.392 652.853 654.846 652.311 654.304 651.769C666.265 650.681 680.4 646.332 691.819 643.068C710.306 638.173 727.159 639.261 746.188 634.37C754.886 632.194 763.587 629.475 772.285 626.757V621.866C762.502 612.077 755.432 599.03 745.1 589.787C717.373 565.86 686.925 542.485 655.392 522.914C638.535 512.04 616.788 504.969 598.847 495.729C592.325 492.462 581.448 490.835 577.645 485.398C567.856 473.436 562.419 457.671 555.352 443.533C539.59 413.627 524.361 380.467 510.769 348.933C500.986 327.728 495.004 306.523 483.042 286.952C427.043 194.525 366.149 138.525 272.634 83.6108C252.517 72.1947 228.597 67.3002 203.042 61.321C189.454 60.7752 175.858 59.6906 162.266 59.1448C153.568 55.3383 144.867 45.0103 137.254 40.1158C106.27 20.5409 26.3436 -21.8627 3.50806 34.1366C-11.1722 69.4764 25.2556 104.27 37.7596 122.215C47.0064 134.719 58.9648 148.853 65.4898 162.991C69.2963 172.228 70.3809 182.02 74.1874 191.806C82.8885 215.723 91.0404 242.368 102.46 264.662C108.443 276.078 114.964 288.04 122.577 298.368C126.926 304.347 134.535 307.069 136.169 316.854C128.56 327.728 128.014 344.039 123.662 357.631C104.09 419.067 111.703 495.184 139.43 540.309C148.128 553.898 168.79 583.808 196.517 572.388C220.983 562.602 215.546 531.611 222.614 504.427C224.248 497.899 223.159 493.553 226.42 489.204C226.423 489.747 226.42 490.292 226.42 490.292C234.033 505.515 241.643 520.195 248.71 535.418C265.566 562.056 294.924 589.786 319.389 608.273C332.443 618.056 342.771 634.912 359.081 640.895V639.261H357.993C354.729 634.366 349.838 632.194 345.489 628.387C335.703 618.601 324.826 606.64 317.217 595.766C294.385 565.317 274.264 531.611 256.323 496.814C247.625 479.961 240.012 461.474 232.945 444.621C229.681 438.093 229.681 428.311 224.244 425.05C216.089 437.008 204.13 447.34 198.148 462.02C187.823 485.398 186.732 514.213 182.925 544.115C180.752 544.661 181.837 544.115 180.749 545.204C163.354 540.851 157.371 522.914 150.846 507.688C134.535 469.087 131.817 407.105 145.955 362.526C149.761 351.106 166.072 315.224 159.547 304.35C156.286 294.019 145.409 288.04 139.43 279.884C132.363 269.553 124.75 256.506 119.859 245.087C106.809 214.642 100.284 180.933 86.1492 150.484C79.6243 136.346 68.2082 121.669 58.9648 108.623C48.6368 93.9423 37.2173 83.6108 29.0619 66.212C26.3469 60.2328 22.5369 50.4472 26.8857 43.9222C27.9738 39.5734 30.1465 37.943 34.4987 36.8549C41.566 30.8723 61.6831 38.4853 68.7503 41.7461C88.8674 49.8979 105.72 57.5144 122.577 68.9305C130.186 74.3673 138.342 84.6988 148.127 87.4173H159.547C176.946 91.2203 196.517 88.5053 212.828 93.3965C241.646 102.636 267.739 116.232 291.12 130.912C362.345 176.038 421.06 240.196 460.752 316.855C467.277 329.355 469.992 340.778 475.974 353.825C487.394 380.467 501.528 407.651 512.945 433.748C524.361 459.298 535.234 485.398 551.545 506.603C559.704 518.016 592.322 523.999 607.002 529.981C617.875 534.872 634.732 539.225 644.518 545.204C663.001 556.616 681.488 569.67 698.886 582.174C707.587 588.695 734.769 602.291 736.402 613.161Z" fill="#599E4F"/>
<path d="M181.833 140.695C172.589 140.695 166.068 141.786 159.543 143.417C159.543 143.417 159.543 143.962 159.543 144.505H160.631C164.983 153.202 172.589 159.185 178.026 166.794C182.379 175.492 186.182 184.193 190.534 192.894C191.076 192.348 191.619 191.806 191.619 191.806C199.235 186.366 203.038 177.668 203.038 164.622C199.774 160.815 199.232 157.009 196.513 153.202C193.252 147.762 186.182 145.047 181.833 140.695Z" fill="#599E4F"/>
</svg>
