<svg width="844" height="439" viewBox="0 0 844 439" fill="none" xmlns="http://www.w3.org/2000/svg">
<path fill-rule="evenodd" clip-rule="evenodd" d="M0 399.218H28.0599V288.692L71.3283 385.08C76.465 396.64 83.3251 400.711 97.031 400.711C110.742 400.711 117.597 396.64 122.734 385.08L166.002 288.692V399.218H193.846V288.903C193.846 278.198 189.559 273.047 180.779 270.262C159.574 263.623 145.22 269.408 138.797 283.762L96.3877 378.652L55.2652 283.762C49.0532 269.408 34.488 263.623 13.2834 270.262C4.28699 273.047 0.0048026 278.193 0.0048026 288.903V399.218H0ZM217.192 309.249H245.035V370.083C244.824 373.506 246.106 381.22 261.531 381.436C269.24 381.643 321.716 381.436 322.144 381.436V309.033H350.204C350.415 309.033 350.204 407.773 350.204 408.205C350.415 432.621 320.003 437.758 306.081 438.19H217.835V419.342C217.835 419.342 305.869 419.558 306.081 419.342C324.074 417.629 321.933 408.637 321.933 405.636V398.349H262.601C234.968 397.927 217.403 385.925 217.192 372.003C217.192 370.721 217.835 309.897 217.192 309.249ZM818.859 239.207C801.73 238.78 788.658 240.278 777.304 245.203C774.097 246.49 769.167 246.49 768.529 250.561C770.242 252.265 770.665 255.054 771.951 257.416C774.736 261.703 779.239 267.478 783.305 270.479C787.592 273.911 792.09 277.334 796.8 280.334C805.369 285.471 814.793 288.255 822.714 293.406C827.644 296.397 832.353 300.262 837.068 303.685C839.204 305.399 840.923 307.972 843.707 309.037V308.615C842.209 306.685 841.777 303.901 840.491 301.75L834.067 295.327C827.86 287.19 819.929 279.902 811.571 273.911C804.932 269.197 789.94 262.557 787.155 254.848C786.939 254.632 786.723 254.632 786.723 254.416C791.437 253.767 797.011 252.063 801.293 250.983C808.581 249.063 815.215 249.485 822.709 247.56C826.141 246.485 829.564 245.63 832.997 244.56V242.63C829.142 238.775 826.573 233.422 822.291 229.995C811.37 220.571 799.368 211.358 787.16 203.648C780.305 199.15 771.952 196.366 764.674 192.727C762.312 191.656 758.025 191.013 756.321 188.872C752.456 184.158 750.536 177.946 747.535 172.377C741.251 160.16 735.394 147.728 729.975 135.105C726.336 126.751 723.758 118.398 719.269 110.684C696.989 74.2706 673.211 52.2115 636.16 30.5749C628.239 26.0767 618.815 24.1517 608.743 21.7945C603.391 21.3625 598.038 21.1512 592.68 20.7192C589.464 19.4326 586.041 15.3664 582.825 13.4366C570.616 5.72671 539.129 -11.1956 530.128 11.0794C524.343 25.0014 538.697 38.7121 543.834 45.7834C547.482 50.7089 551.971 56.2825 554.549 61.8465C556.253 65.4854 556.469 69.1291 557.972 72.984C561.61 82.6237 564.611 93.118 569.109 101.898C571.461 106.397 574.03 111.111 577.03 115.182C578.744 117.539 581.96 118.61 582.383 122.464C579.382 126.747 579.176 133.175 577.462 138.527C569.964 162.732 572.748 192.506 583.886 210.494C587.318 215.847 595.239 227.628 606.381 223.134C616.021 219.063 613.875 207.067 616.66 196.145C617.308 193.788 616.876 192.074 618.157 190.36V190.787C620.942 196.784 623.942 202.568 626.943 208.348C633.366 218.847 644.936 229.985 654.791 237.263C659.712 241.118 663.783 247.762 670.422 249.898V249.466H669.784C668.497 247.546 666.567 246.686 665.07 245.184C661.215 241.329 656.932 236.615 653.716 232.332C644.94 220.336 637.014 207.057 629.732 193.346C626.299 186.707 623.299 179.424 620.524 172.785C619.444 170.217 619.444 166.362 617.092 164.859C613.875 169.785 609.387 173.856 606.804 179.64C602.949 188.853 602.31 200.202 601.029 211.771C600.165 212.198 600.381 211.982 599.949 212.415C593.103 210.701 590.741 203.629 588.172 197.633C581.965 182.425 580.674 158.009 586.243 140.443C587.74 135.945 594.389 121.807 591.605 117.525C590.309 113.454 586.243 110.885 583.89 107.674C580.89 103.819 578.106 98.6771 575.969 94.1789C570.833 82.1821 568.471 68.9034 562.897 56.9114C560.113 51.1266 555.835 45.3418 552.192 40.4163C548.121 34.6315 543.622 30.5653 540.415 23.71C539.345 21.3529 537.847 17.4979 539.345 14.9248C539.983 13.2109 540.632 12.5676 542.336 11.9244C545.12 9.78326 553.051 12.7837 556.042 13.8494C563.756 17.2771 570.396 20.2775 577.035 24.7757C580.251 26.9168 583.468 30.983 587.323 32.0583H591.61C598.465 33.5561 606.17 32.4856 612.593 34.4155C623.947 37.8383 634.225 43.1959 643.443 49.1967C671.714 66.9736 694.637 92.2491 710.484 122.45C713.052 127.376 714.123 131.874 716.269 137.015C720.772 147.514 726.547 158.22 731.045 168.287C735.332 178.57 739.83 188.853 746.038 197.201C749.47 201.699 762.317 204.057 768.101 206.409C772.172 208.123 778.807 210.048 782.671 212.41C790.165 216.692 797.232 222.049 804.303 226.975C807.721 229.356 818.427 234.709 818.859 239.207Z" fill="#599E4F"/>
<path fill-rule="evenodd" clip-rule="evenodd" d="M600.381 53.0757C597.423 53.0766 594.476 53.4377 591.605 54.151V54.5783H592.244C593.958 58.006 596.958 60.3631 599.099 63.3587C600.597 66.7864 602.316 70.2141 603.814 73.6417L604.452 72.9984C607.452 71.0734 608.739 67.6457 608.739 62.2929C607.668 61.0064 607.452 59.5086 606.387 58.006C604.884 55.8601 602.316 54.7895 600.381 53.0757Z" fill="#599E4F"/>
<path fill-rule="evenodd" clip-rule="evenodd" d="M371.844 399.218H452.164C461.587 399.218 470.795 397.288 478.078 393.856C490.07 388.297 496.071 380.793 496.071 370.942V350.381C496.071 342.46 489.215 334.75 476.157 329.82C469.086 327.035 460.517 325.749 452.164 325.749H418.324C406.97 325.749 401.617 322.316 400.331 314.827C400.115 313.973 400.115 313.113 400.115 312.259V299.619C400.115 298.764 400.115 298.121 400.331 297.266C401.617 291.482 404.613 289.768 414.469 288.913C415.323 288.913 416.394 288.697 417.253 288.697H497.146V270.066H418.54C407.186 270.066 401.401 270.92 396.049 272.418C379.342 277.771 372.06 285.913 372.06 300.267V316.546C372.06 329.186 386.409 339.891 410.187 342.46C412.971 342.46 415.539 342.676 418.324 342.676H447.243C448.314 342.676 449.379 342.676 450.234 342.892C459.235 343.746 462.874 345.244 465.658 348.451C467.156 350.165 467.804 351.667 467.804 353.597V369.876C467.804 371.806 466.518 374.379 463.733 376.516C461.371 378.662 457.3 379.948 451.948 380.371C450.877 380.371 450.027 380.587 448.947 380.587H371.844V399.218ZM670.426 366.65C670.426 385.93 684.564 396.635 713.483 398.781C716.051 398.997 718.836 399.213 721.404 399.213H794.23V380.572H720.972C704.477 380.572 698.27 376.501 698.27 366.65V270.056H670.421V366.65H670.426ZM513.852 367.721V301.328C513.852 284.405 525.628 274.127 549.19 270.911C551.552 270.479 554.336 270.479 556.689 270.479H609.803C612.371 270.479 614.733 270.479 617.518 270.911C640.863 274.127 652.855 284.405 652.855 301.328V367.721C652.855 381.436 647.719 388.714 636.149 393.428L663.782 418.277H631.228L608.949 398.354L586.453 399.64H556.684C551.547 399.64 546.189 399.002 540.189 397.288C522.421 392.569 513.852 383.145 513.852 367.721ZM544.053 366.017C544.053 367.087 544.269 367.937 544.485 369.017C546.199 376.722 553.477 381.009 564.398 381.009H589.895L566.549 360.016H599.102L619.448 378.225C623.096 376.295 625.664 373.294 626.519 369.44C626.735 368.369 626.735 367.519 626.735 366.655V302.83C626.735 302.182 626.735 301.332 626.519 300.468C624.805 293.191 617.527 289.124 606.812 289.124H564.403C551.979 289.124 544.058 294.477 544.058 302.83L544.053 366.017ZM807.086 399.218H811.157V383.793H816.726V380.577H801.518V383.793H807.086V399.218ZM838.358 399.218H841.997V380.577H836.428L831.507 393.433L826.587 380.577H820.802V399.218H824.657V385.08L830.009 399.218H832.794L838.147 385.08H838.363V399.218H838.358Z" fill="#599E4F"/>
<path fill-rule="evenodd" clip-rule="evenodd" d="M16.9257 225.928L1.28516 153.53H9.21105L18.2075 201.08C19.278 206.006 20.1374 210.931 20.7807 215.857L23.565 202.362L34.9186 153.525H44.1263L52.6955 190.154C54.8366 199.15 56.3344 207.715 57.4049 215.857C58.0482 211.147 59.1188 205.79 60.4053 200.01L69.613 153.53H77.7549L61.2646 225.928H53.766L41.1307 170.879L39.2008 162.31C38.7735 165.522 38.1303 168.311 37.487 170.879L24.8468 225.928H16.9257ZM82.6852 190.802C82.6852 178.378 85.4696 168.954 90.8223 162.31C96.1799 155.671 103.03 152.459 111.172 152.459C116.309 152.459 121.239 153.746 125.522 156.741C129.804 159.737 133.231 164.024 135.805 169.593C138.162 175.373 139.448 182.012 139.448 189.938C139.448 200.648 137.091 209.217 132.161 216.068C126.808 223.566 119.742 227.205 111.172 227.205C102.387 227.205 95.3206 223.35 89.9678 215.852C85.0375 208.795 82.6852 200.442 82.6852 190.802ZM90.8223 190.802C90.8223 199.798 92.7474 206.654 96.6071 211.579C100.678 216.505 105.388 219.078 110.956 219.078C116.741 219.078 121.667 216.505 125.522 211.579C129.376 206.654 131.306 199.371 131.306 189.731C131.306 183.308 130.452 177.951 128.306 173.03C126.808 169.175 124.451 166.174 121.451 164.033C118.491 161.796 114.878 160.591 111.168 160.606C105.167 160.606 100.241 162.958 96.6023 167.888C92.7474 172.809 90.8223 180.519 90.8223 190.802ZM149.294 225.928V153.53H175.64C180.993 153.53 185.064 154.173 187.637 155.671C190.422 156.957 192.563 159.098 194.061 162.31C195.774 165.522 196.634 169.165 196.634 173.231C196.634 178.805 195.347 183.087 192.352 186.515C189.562 189.943 185.496 192.084 179.927 193.154C182.285 194.441 183.782 195.727 185.069 197.009C187.426 199.794 189.356 202.794 191.281 206.217L201.559 225.924H191.708L183.782 210.926C180.571 205.141 178.43 201.075 176.716 199.145C175.218 197.004 173.715 195.502 172.218 194.858C170.72 194.215 168.79 193.788 166.222 193.788H157.225V225.919H149.294V225.928ZM157.22 185.444H173.927C177.566 185.444 180.35 185.017 182.28 184.158C184.205 183.303 185.703 181.801 186.989 180.087C188.06 178.157 188.487 175.8 188.487 173.231C188.487 169.593 187.416 166.808 185.275 164.667C183.134 162.526 180.134 161.455 175.852 161.455H157.216L157.22 185.444ZM208.842 225.928V153.53H216.768V189.515L246.114 153.53H256.82L231.76 182.876L257.89 225.928H247.396L226.407 189.515L216.768 200.869V225.928H208.842ZM261.534 202.583L269.033 201.939C269.46 205.794 270.319 209.006 271.817 211.147C273.104 213.504 275.245 215.218 277.813 216.5C280.386 217.998 283.382 218.641 286.598 218.641C291.308 218.641 294.735 217.354 297.308 215.218C299.877 212.861 301.163 209.861 301.163 206.222C301.163 204.081 300.736 202.367 299.877 200.653C299.022 199.155 297.52 197.868 295.59 196.798C293.665 195.727 289.594 194.23 283.382 192.516C277.813 190.802 273.742 189.088 271.385 187.374C269 185.846 267.075 183.699 265.816 181.162C264.53 178.589 263.886 175.593 263.886 172.382C263.886 166.381 265.816 161.671 269.455 158.028C273.31 154.173 278.451 152.459 284.875 152.459C289.157 152.459 293.012 153.314 296.44 155.027C299.651 156.741 302.224 159.31 304.149 162.526C306.022 166.091 306.979 170.065 306.934 174.091L299.435 174.734C299.219 170.025 297.721 166.597 295.364 164.24C292.791 161.883 289.579 160.812 285.086 160.812C280.583 160.812 277.16 161.883 275.014 163.813C273.852 164.728 272.919 165.901 272.287 167.239C271.656 168.577 271.343 170.043 271.375 171.522C271.375 174.523 272.235 176.664 273.948 178.378C275.658 179.876 279.517 181.589 285.513 183.303C291.509 184.801 295.58 186.304 297.937 187.374C301.581 189.299 304.361 191.656 306.075 194.657C308.004 197.657 308.859 201.296 308.859 205.367C308.884 209.349 307.849 213.267 305.858 216.716C303.929 220.144 301.36 222.717 297.933 224.426C294.721 226.351 290.65 227.21 285.936 227.21C278.653 227.21 272.657 225.069 268.375 220.571C264.093 216.073 261.745 210.077 261.534 202.583ZM355.349 225.928L339.713 153.53H347.639L356.635 201.08C357.706 206.006 358.56 210.931 359.208 215.857L361.993 202.362L373.341 153.525H382.554L391.118 190.154C393.131 198.635 394.705 207.214 395.833 215.857C396.476 211.147 397.546 205.79 398.617 200.01L408.041 153.53H416.178L399.687 225.928H392.189L379.549 170.879L377.624 162.31C377.196 165.522 376.553 168.311 375.91 170.879L363.274 225.928H355.349ZM424.747 225.928V153.53H432.673V225.928H424.747ZM461.587 225.928V162.099H442.097V153.53H489.004V162.099H469.307V225.928H461.587ZM496.723 225.928V153.53H504.644V183.303H535.484V153.53H543.415V225.928H535.484V191.872H504.644V225.928H496.723Z" fill="#599E4F"/>
</svg>
