<svg width="623" height="466" viewBox="0 0 623 466" fill="none" xmlns="http://www.w3.org/2000/svg">
<path d="M535.686 267.707C513.964 267.83 495.154 273.047 479.378 280.815C473.553 269.286 467.728 259.212 466.758 251.69C465.666 242.952 464.331 237.611 465.666 227.176C467 216.739 473.067 201.933 473.067 200.72C472.945 199.628 471.731 194.288 459.233 194.167C446.735 194.045 435.933 196.594 434.72 199.87C433.506 203.147 431.079 210.671 429.501 218.437C427.317 229.845 404.502 270.256 391.517 291.493C387.27 283.241 383.629 275.959 382.9 270.133C381.809 261.397 380.473 256.056 381.809 245.621C383.144 235.183 389.212 220.379 389.212 219.166C389.09 218.073 387.877 212.734 375.379 212.612C362.878 212.491 352.079 215.04 350.865 218.316C349.651 221.593 348.317 229.359 345.647 236.883C343.097 244.407 312.759 311.88 304.871 329.477C300.866 338.457 297.348 345.617 294.798 350.471C292.25 355.325 294.677 350.835 294.434 351.32C292.25 355.446 291.036 357.752 291.036 357.752V357.875C289.337 360.909 287.517 363.82 286.666 363.82C286.059 363.82 284.846 355.689 286.909 344.526C291.399 321.103 302.321 284.577 302.201 283.242C302.201 282.635 304.263 276.202 295.161 272.927C286.302 269.65 283.148 275.111 282.419 275.111C281.691 275.111 281.084 277.053 281.084 277.053C281.084 277.053 290.914 235.915 262.274 235.915C244.314 235.915 219.557 255.453 207.301 273.292C199.534 277.539 183.03 286.518 165.555 296.107C158.88 299.747 151.963 303.631 145.41 307.15L144.076 305.691C109.369 268.678 45.1727 242.466 47.8424 192.71C48.8133 174.629 55.1237 126.936 171.14 69.1719C266.16 21.8438 342.249 34.8286 355.475 63.7109C374.285 104.971 314.822 181.667 216.041 192.71C178.421 196.958 158.639 182.395 153.665 176.934C148.446 171.231 147.718 170.988 145.776 172.08C142.621 173.779 144.563 178.876 145.776 181.91C148.689 189.555 160.824 203.147 181.455 209.943C199.535 215.889 243.709 219.166 297.105 198.535C356.933 175.357 403.654 111.039 389.941 57.2792C375.985 2.54844 285.212 -15.412 199.415 15.0479C148.324 33.251 92.9862 61.6479 53.182 98.9036C5.85391 143.077 -1.67005 181.667 1.48516 197.686C12.5296 254.844 91.2872 292.099 122.839 319.647C121.262 320.495 119.805 321.345 118.471 322.074C102.695 329.839 42.6242 361.271 27.5763 394.521C10.5867 432.141 30.2461 459.204 43.3523 462.845C83.8846 474.131 125.388 453.865 147.838 420.492C170.166 387.12 167.498 343.796 157.183 324.016L156.817 323.287L169.195 316.006C177.206 311.273 185.094 306.905 192.01 303.141C188.128 313.699 185.336 326.199 183.88 344.402C182.182 365.761 190.919 393.429 202.448 404.351C207.545 409.082 213.612 409.205 217.374 409.205C230.723 409.205 236.791 398.161 243.465 384.934C251.717 368.794 258.999 350.106 258.999 350.106C258.999 350.106 249.897 400.71 274.775 400.71C283.876 400.71 292.978 388.939 297.104 382.871V382.993C297.104 382.993 297.347 382.628 297.832 381.779C298.341 381.026 298.827 380.258 299.288 379.474V379.232C302.929 372.921 311.06 358.48 323.195 334.573C338.849 303.749 353.898 265.159 353.898 265.159C353.898 265.159 355.354 274.624 359.844 290.158C362.513 299.382 368.338 309.453 372.828 319.283C369.187 324.38 367.003 327.293 367.003 327.293L367.124 327.415C364.213 331.298 360.935 335.425 357.538 339.55C345.16 354.355 330.355 371.225 328.413 376.079C326.108 381.781 326.593 386.029 331.083 389.428C334.36 391.855 340.185 392.339 346.374 391.855C357.538 391.126 365.305 388.336 369.188 386.636C375.256 384.451 382.173 381.175 388.848 376.321C400.983 367.342 408.386 354.599 407.658 337.61C407.294 328.265 404.26 319.043 400.498 310.305C401.59 308.727 402.683 307.149 403.774 305.451C422.948 277.417 437.753 246.594 437.753 246.594C437.753 246.594 439.21 256.06 443.7 271.593C446.004 279.481 450.617 288.098 454.743 296.593C436.783 311.277 425.497 328.267 421.613 339.431C414.453 360.061 420.036 369.406 430.594 371.59C435.325 372.561 442.122 370.377 447.218 368.192C453.528 366.129 461.174 362.609 468.213 357.392C480.349 348.411 491.999 335.912 491.392 319.044C491.028 311.277 488.965 303.632 486.174 296.351C501.464 290.04 521.244 286.399 546.365 289.433C600.368 295.744 611.047 329.48 608.985 343.557C606.922 357.636 595.636 365.401 591.873 367.828C588.111 370.134 586.898 370.985 587.262 372.682C587.747 375.232 589.446 375.109 592.723 374.625C597.213 373.896 621.12 363.097 622.09 337.128C623.547 303.751 591.873 267.344 535.686 267.707ZM119.199 408.114C101.36 427.652 76.2393 435.055 65.5602 428.744C54.0315 422.07 58.5204 393.309 80.4867 372.557C93.8357 359.936 111.189 348.286 122.597 341.127C125.145 339.549 129.028 337.244 133.64 334.452C134.368 333.968 134.853 333.724 134.853 333.724C135.703 333.239 136.674 332.632 137.645 332.025C145.775 361.635 138.009 387.605 119.199 408.114ZM249.654 319.404C243.465 334.573 230.359 373.528 222.471 371.344C215.674 369.523 211.549 340.034 221.135 310.909C225.989 296.224 236.304 278.751 242.372 271.953C252.203 261.032 262.881 257.391 265.552 261.881C268.707 267.707 253.538 309.939 249.654 319.404ZM357.296 370.858C354.626 372.194 352.199 373.164 351.107 372.437C350.257 371.952 352.197 370.131 352.197 370.131C352.197 370.131 365.668 355.69 371.007 349.016C374.041 345.134 377.682 340.644 381.565 335.545V337.002C381.566 354.476 364.82 366.126 357.296 370.858ZM440.301 351.927C438.359 350.471 438.603 345.981 445.155 331.904C447.704 326.321 453.528 316.977 463.601 308.118C464.814 311.759 465.544 315.277 465.421 318.555C465.301 340.398 449.767 348.529 440.301 351.927Z" fill="#599E4F"/>
</svg>
