<svg width="741" height="444" viewBox="0 0 741 444" fill="none" xmlns="http://www.w3.org/2000/svg">
<path d="M370.249 0C271.552 0 209.87 49.3344 185.194 147.994C222.209 98.6595 265.388 80.166 314.731 92.495C342.888 99.5295 363.011 119.957 385.29 142.561C421.573 179.381 463.567 221.995 555.303 221.995C653.991 221.995 715.682 172.661 740.349 73.9923C703.344 123.327 660.164 141.829 610.812 129.5C582.664 122.466 562.542 102.038 540.262 79.4348C503.979 42.6145 461.975 0 370.249 0ZM185.194 221.995C86.5067 221.995 24.8156 271.33 0.148438 369.998C37.1538 320.664 80.333 302.161 129.686 314.5C157.833 321.543 177.956 341.962 200.235 364.556C236.518 401.376 278.522 444 370.249 444C468.945 444 530.627 394.666 555.303 295.997C518.289 345.331 475.11 363.834 425.766 351.496C397.609 344.47 377.487 324.033 355.208 301.439C318.924 264.619 276.93 221.995 185.194 221.995Z" fill="#599E4F"/>
</svg>
