<svg width="457" height="452" viewBox="0 0 457 452" fill="none" xmlns="http://www.w3.org/2000/svg">
<path d="M4.3469 157.619C4.3469 157.619 -6.78117 149.598 6.57252 138.887L37.6848 111.067C37.6848 111.067 46.5872 101.701 55.9997 109.861L343.104 327.23V431.463C343.104 431.463 342.965 447.83 321.961 446.022L4.3469 157.619Z" fill="#599E4F"/>
<path d="M78.3501 224.805L4.34839 292.083C4.34839 292.083 -3.2558 297.74 4.34839 307.848L38.7063 339.1C38.7063 339.1 46.8669 347.863 58.9223 337.894L137.375 278.405L78.3501 224.805Z" fill="#599E4F"/>
<path d="M208.27 225.361L343.986 121.731L343.105 18.0544C343.105 18.0544 337.309 -4.57265 317.974 7.20457L137.375 171.576L208.27 225.361Z" fill="#599E4F"/>
<path d="M321.96 446.161C329.843 454.229 339.394 451.586 339.394 451.586L445.157 399.469C458.696 390.242 456.795 378.79 456.795 378.79V67.5745C456.795 53.8963 442.793 49.1668 442.793 49.1668L351.125 4.97908C331.095 -7.40091 317.973 7.2047 317.973 7.2047C317.973 7.2047 334.85 -4.94345 343.104 18.0546V429.562C343.104 432.39 342.501 435.172 341.295 437.676C338.884 442.544 333.645 447.088 321.079 445.187L321.96 446.161Z" fill="#599E4F"/>
</svg>
