<svg width="476" height="476" viewBox="0 0 476 476" fill="none" xmlns="http://www.w3.org/2000/svg">
<path d="M426.366 92.5317C397.594 55.2736 358.419 27.3849 313.796 12.3926C269.172 -2.59964 221.105 -4.022 175.674 8.30543C130.242 20.6329 89.4861 46.1563 58.5611 81.6479C27.636 117.139 7.9306 161.005 1.93708 207.696C-4.05644 254.388 3.93113 301.808 24.8896 343.959C45.848 386.111 78.8359 421.1 119.681 444.503C160.527 467.905 207.395 478.669 254.358 475.433C301.321 472.197 346.27 455.107 383.519 426.324C487.495 345.97 506.691 196.544 426.366 92.5317Z" fill="#599E4F"/>
<path d="M318.271 151.644L217.918 252.793L189.559 223.639C288.328 124.87 298.234 133.794 318.271 151.644Z" fill="white"/>
<path d="M217.919 255.56C217.03 255.538 216.181 255.186 215.539 254.571L186.979 226.011C186.336 225.346 185.977 224.456 185.977 223.531C185.977 222.606 186.336 221.716 186.979 221.051C284.357 123.672 297.648 128.231 320.652 149.056C321.037 149.364 321.345 149.758 321.552 150.206C321.758 150.654 321.858 151.144 321.842 151.637C321.991 152.604 321.619 153.593 320.853 154.218L220.499 254.579C219.796 255.224 218.873 255.57 217.919 255.56ZM194.513 223.631L217.919 247.037L313.118 151.838C309.831 147.719 305.141 144.956 299.944 144.077C294.748 143.199 289.41 144.267 284.952 147.078C267.697 154.813 239.934 178.412 194.513 223.631Z" fill="#599E4F"/>
<path d="M246.678 280.758L219.309 252.794L319.662 153.623C346.638 180.003 306.572 224.04 246.678 280.758Z" fill="white"/>
<path d="M246.679 284.328C245.801 284.259 244.968 283.912 244.299 283.339L216.334 255.969C215.915 254.952 215.915 253.811 216.334 252.794C216.037 251.959 216.037 251.047 216.334 250.213L316.687 149.859C317.385 149.204 318.307 148.839 319.265 148.839C320.222 148.839 321.144 149.204 321.842 149.859C325.091 152.851 327.659 156.507 329.37 160.579C331.081 164.651 331.894 169.044 331.756 173.458C331.756 200.233 301.21 233.947 249.252 283.138C248.558 283.825 247.652 284.246 246.679 284.328ZM224.463 252.794L246.872 275.195C286.536 237.71 324.422 199.036 324.616 172.856C324.831 167.306 322.997 161.871 319.462 157.587L224.463 252.794Z" fill="#599E4F"/>
<path d="M190.347 224.234L210.182 244.069C210.309 244.181 210.41 244.318 210.48 244.472C210.549 244.626 210.585 244.793 210.585 244.962C210.585 245.131 210.549 245.298 210.48 245.452C210.41 245.605 210.309 245.743 210.182 245.854L168.332 254.779C167.487 254.962 166.606 254.863 165.822 254.498C165.039 254.133 164.396 253.523 163.992 252.759C163.587 251.995 163.444 251.12 163.583 250.267C163.722 249.414 164.136 248.63 164.762 248.034L189.157 223.84C189.157 223.84 189.952 223.84 190.347 224.234Z" fill="white"/>
<path d="M167.341 258.743C166.019 258.727 164.723 258.371 163.577 257.711C162.432 257.051 161.474 256.108 160.796 254.973C160.034 253.534 159.757 251.888 160.008 250.279C160.259 248.67 161.023 247.186 162.187 246.048L186.381 221.653C187.254 220.873 188.383 220.442 189.553 220.442C190.724 220.442 191.853 220.873 192.725 221.653L212.561 241.489C213.736 242.604 214.197 244.292 213.751 245.854C213.305 247.416 211.996 248.658 210.382 249.03L168.531 257.955L167.341 258.743ZM189.557 228.599L167.148 251.008L204.239 243.073L189.557 228.599Z" fill="#599E4F"/>
<path d="M371.628 95.9083C357.273 82.0598 334.723 81.4796 319.67 94.5472C304.616 107.615 302.043 130.046 313.764 146.185C325.486 162.325 347.583 166.847 364.689 156.598L337.713 129.622L371.628 95.9083Z" fill="white"/>
<path d="M344.852 165.716C336.605 165.61 328.572 163.08 321.753 158.441C314.934 153.801 309.631 147.258 306.505 139.626C303.381 131.999 302.561 123.624 304.147 115.537C305.734 107.449 309.656 100.005 315.43 94.1233C323.37 86.3286 334.052 81.9617 345.179 81.9617C356.306 81.9617 366.989 86.3286 374.929 94.1233C375.688 94.7629 376.119 95.7074 376.119 96.7041C376.117 97.1944 376.01 97.6786 375.805 98.1239C375.599 98.5691 375.301 98.9651 374.929 99.2848L342.799 129.63L367.194 153.63C367.589 154.008 367.886 154.476 368.059 154.995C368.231 155.513 368.274 156.066 368.183 156.605C368.125 157.125 367.952 157.626 367.678 158.072C367.405 158.518 367.036 158.898 366.599 159.186C360.045 163.282 352.512 165.543 344.785 165.731L344.852 165.716ZM344.852 88.7609C330.721 88.8352 318.077 97.3362 312.774 110.329C307.472 123.323 310.357 138.279 320.264 148.26C325.191 153.217 331.501 156.569 338.366 157.879C345.231 159.189 352.332 158.395 358.738 155.601L335.332 132.196C334.96 131.898 334.66 131.521 334.453 131.091C334.247 130.662 334.14 130.192 334.14 129.715C334.14 129.239 334.247 128.768 334.453 128.339C334.66 127.91 334.96 127.532 335.332 127.235L366.272 96.0942C360.122 91.3806 352.601 88.8106 344.852 88.7609Z" fill="#599E4F"/>
<path d="M372.223 96.5034L338.309 130.217L365.284 157.193C367.999 155.634 370.527 153.77 372.818 151.637C379.888 144.164 383.778 134.237 383.667 123.95C383.556 113.663 379.453 103.822 372.223 96.5034Z" fill="white"/>
<path d="M364.681 160.168C364.235 160.192 363.79 160.115 363.378 159.944C362.966 159.773 362.598 159.511 362.301 159.178L335.325 132.203C334.953 131.905 334.653 131.528 334.446 131.099C334.24 130.669 334.133 130.199 334.133 129.722C334.133 129.246 334.24 128.776 334.446 128.346C334.653 127.917 334.953 127.54 335.325 127.242L369.039 94.1232C369.365 93.6323 369.807 93.2296 370.326 92.951C370.845 92.6724 371.425 92.5266 372.014 92.5266C372.603 92.5266 373.183 92.6724 373.702 92.951C374.221 93.2296 374.664 93.6323 374.989 94.1232C378.947 98.0011 382.091 102.63 384.238 107.738C386.385 112.847 387.49 118.332 387.49 123.873C387.49 129.414 386.385 134.899 384.238 140.008C382.091 145.116 378.947 149.745 374.989 153.623C372.654 156.099 369.983 158.235 367.053 159.967C366.316 160.339 365.47 160.411 364.681 160.168ZM342.867 129.63L365.276 152.039C366.817 150.958 368.277 149.765 369.642 148.469C376.229 141.899 379.939 132.983 379.957 123.68C379.973 115.354 376.938 107.311 371.427 101.07L342.867 129.63Z" fill="#599E4F"/>
<path d="M322.438 155.809C319.752 153.287 316.205 151.883 312.52 151.883C308.835 151.883 305.289 153.287 302.602 155.809L212.766 245.445L227.64 260.521L322.639 177.222C324.088 175.833 325.237 174.163 326.016 172.314C326.795 170.464 327.187 168.475 327.168 166.468C327.149 164.462 326.72 162.48 325.906 160.646C325.093 158.811 323.913 157.17 322.438 155.809Z" fill="white"/>
<path d="M226.841 264.099C225.952 264.077 225.103 263.724 224.461 263.109L209.385 248.034C208.742 247.368 208.383 246.479 208.383 245.553C208.383 244.628 208.742 243.739 209.385 243.073L299.229 153.623C301.817 151.038 305.122 149.291 308.715 148.607C312.308 147.923 316.023 148.334 319.38 149.788C322.736 151.241 325.578 153.669 327.538 156.757C329.498 159.846 330.484 163.451 330.37 167.107C330.267 169.588 329.67 172.024 328.614 174.272C327.558 176.519 326.064 178.534 324.219 180.197L229.221 263.496C228.53 263.985 227.681 264.205 226.841 264.099ZM216.332 245.446L226.246 255.56L319.459 174.44C321.765 172.432 323.141 169.561 323.23 166.505C323.319 163.448 322.114 160.458 319.861 158.375C317.78 156.303 314.963 155.14 312.026 155.14C309.089 155.14 306.271 156.303 304.19 158.375L216.332 245.446Z" fill="#599E4F"/>
<path d="M143.15 347.591C142.896 347.936 142.759 348.353 142.759 348.781C142.759 349.209 142.896 349.626 143.15 349.971L147.114 367.226C147.273 368.241 147.122 369.281 146.682 370.21C146.242 371.138 145.532 371.913 144.645 372.432C143.761 372.949 142.736 373.172 141.718 373.069C140.699 372.966 139.74 372.543 138.978 371.86L111.809 345.68L196.499 260.32H225.854L245.69 280.156C214.748 307.209 180.248 329.898 143.15 347.591Z" fill="white"/>
<path d="M141.364 376.746C139.118 376.701 136.901 375.779 135.414 374.165L109.435 348.186C109.063 347.889 108.762 347.511 108.556 347.082C108.349 346.652 108.242 346.182 108.242 345.706C108.242 345.229 108.349 344.759 108.556 344.33C108.762 343.9 109.063 343.523 109.435 343.225L194.712 257.747C195.19 257.239 195.814 256.893 196.497 256.758H226.046C226.816 256.485 227.656 256.485 228.426 256.758L248.262 276.593C248.639 276.941 248.926 277.375 249.098 277.858C249.271 278.342 249.323 278.86 249.251 279.367C249.265 279.86 249.165 280.35 248.959 280.797C248.752 281.245 248.445 281.639 248.061 281.948L246.477 283.339C215.41 309.239 181.231 331.158 144.733 348.588L148.504 364.653C148.795 365.892 148.806 367.181 148.536 368.425C148.266 369.669 147.722 370.837 146.943 371.844C146.164 372.851 145.17 373.671 144.034 374.245C142.897 374.819 141.647 375.132 140.374 375.162L141.364 376.746ZM117.17 345.605L140.568 369.204C140.786 369.399 141.068 369.506 141.36 369.506C141.652 369.506 141.934 369.399 142.152 369.204C142.298 369.002 142.376 368.758 142.376 368.509C142.376 368.259 142.298 368.016 142.152 367.813L138.188 350.559C137.875 349.32 138.001 348.012 138.543 346.856C139.085 345.699 140.011 344.766 141.163 344.214C176.68 327.017 209.978 305.572 240.326 280.349L224.06 264.084H197.487L117.17 345.605Z" fill="#599E4F"/>
<path d="M91.3844 366.036L111.22 346.2L141.766 376.746L93.1768 373.377C92.3426 373.311 91.5503 372.984 90.9131 372.442C90.2759 371.899 89.8262 371.17 89.6283 370.357C89.4304 369.544 89.4944 368.689 89.811 367.914C90.1277 367.14 90.681 366.485 91.3919 366.044L91.3844 366.036Z" fill="white"/>
<path d="M142.355 379.721L93.9597 376.352C91.0888 376.084 88.6196 374.12 87.6081 371.495C86.5966 368.87 87.2139 365.753 89.1997 363.656L109.035 343.82C109.701 343.177 110.59 342.818 111.516 342.818C112.441 342.818 113.331 343.177 113.996 343.82L144.341 374.165C144.761 374.741 144.987 375.435 144.987 376.147C144.987 376.86 144.761 377.554 144.341 378.129C143.882 378.871 143.18 379.438 142.355 379.721ZM93.9597 368.617L133.624 371.197L111.81 350.767L93.9597 368.617Z" fill="#599E4F"/>
<path d="M228.628 262.715L188.562 268.866L211.767 245.862L228.628 262.715Z" fill="white"/>
<path d="M188.56 272.622C187.894 272.639 187.238 272.46 186.673 272.107C186.109 271.754 185.66 271.242 185.384 270.636C184.962 270.062 184.734 269.367 184.734 268.654C184.734 267.941 184.962 267.246 185.384 266.672L208.388 243.467C209.086 242.811 210.008 242.446 210.965 242.446C211.923 242.446 212.845 242.811 213.543 243.467L230.411 260.32C230.748 260.855 230.926 261.474 230.926 262.105C230.926 262.737 230.748 263.356 230.411 263.89C230.245 264.542 229.896 265.131 229.404 265.589C228.912 266.047 228.298 266.353 227.636 266.471L187.973 272.622H188.56ZM211.765 251.001L198.876 263.89L221.092 260.521L211.765 251.001Z" fill="#599E4F"/>
<path d="M228.626 262.7L200.661 266.27C199.913 266.44 199.129 266.364 198.428 266.054C197.726 265.744 197.142 265.216 196.764 264.548C196.386 263.88 196.233 263.108 196.328 262.347C196.423 261.585 196.761 260.875 197.292 260.32L211.772 245.84L228.626 262.7Z" fill="white"/>
<path d="M199.866 270.048C198.57 270.036 197.3 269.681 196.186 269.018C195.071 268.356 194.152 267.41 193.522 266.278C192.765 264.92 192.471 263.352 192.686 261.813C192.9 260.273 193.612 258.845 194.712 257.747L209.193 243.266C209.89 242.61 210.812 242.245 211.77 242.245C212.727 242.245 213.649 242.61 214.347 243.266L231.207 260.127C231.709 260.602 232.062 261.212 232.223 261.884C232.385 262.555 232.348 263.259 232.117 263.91C231.886 264.562 231.472 265.132 230.924 265.552C230.375 265.972 229.717 266.224 229.028 266.278L201.264 269.848L199.866 270.048ZM199.866 262.708L220.892 260.127L211.573 250.808L199.673 262.708H199.866ZM372.415 119.314C372.041 118.688 371.451 118.221 370.755 118.002C370.06 117.782 369.309 117.826 368.644 118.124C368.316 118.29 368.024 118.521 367.786 118.802C367.549 119.083 367.37 119.409 367.26 119.76C367.04 120.469 367.109 121.237 367.454 121.895C368.845 124.818 368.458 128.276 366.465 130.82C366.217 131.065 366.023 131.358 365.895 131.682C365.767 132.006 365.708 132.353 365.721 132.701C365.728 133.399 365.993 134.069 366.465 134.583C366.974 134.784 367.54 134.784 368.049 134.583C368.511 134.699 368.995 134.686 369.45 134.546C369.905 134.406 370.313 134.143 370.63 133.787C372.263 131.788 373.297 129.367 373.613 126.804C373.929 124.242 373.513 121.65 372.415 119.314Z" fill="#599E4F"/>
</svg>
